<svg xmlns="http://www.w3.org/2000/svg" enable-background="new 0 0 5500 4000" viewBox="0 0 5500 4000"><path fill="#dedede" d="M3857.56 1232.66c-13.55 0-24.56-11.02-24.56-24.56s11.02-24.56 24.56-24.56c13.55 0 24.57 11.02 24.57 24.56S3871.11 1232.66 3857.56 1232.66zM3857.56 1196.66c-6.31 0-11.44 5.13-11.44 11.44 0 6.31 5.13 11.44 11.44 11.44 6.31 0 11.44-5.13 11.44-11.44C3869 1201.79 3863.87 1196.66 3857.56 1196.66zM3390.01 1928.67c-.77-1.3-1.99-2.22-3.45-2.59-1.46-.38-2.98-.16-4.27.61l-18.71 11.06-11.06-18.71c-.77-1.3-1.99-2.22-3.45-2.59-1.46-.38-2.98-.16-4.27.61-1.3.77-2.22 1.99-2.59 3.45-.38 1.46-.16 2.98.61 4.27l11.06 18.71-18.71 11.06c-1.3.77-2.22 1.99-2.59 3.45-.38 1.46-.16 2.98.61 4.27.77 1.3 1.99 2.22 3.45 2.59 1.46.37 2.98.16 4.27-.61l18.71-11.06 11.06 18.72c1.25 2.11 3.67 3.11 5.95 2.66.61-.12 1.21-.34 1.77-.68 2.68-1.58 3.57-5.05 1.99-7.72l-11.06-18.71 18.71-11.06C3390.7 1934.81 3391.59 1931.34 3390.01 1928.67zM3437.45 2052.56c-13.55 0-24.56-11.02-24.56-24.56s11.02-24.56 24.56-24.56c13.55 0 24.56 11.02 24.56 24.56S3450.99 2052.56 3437.45 2052.56zM3437.45 2016.56c-6.31 0-11.44 5.13-11.44 11.44s5.13 11.44 11.44 11.44c6.31 0 11.44-5.13 11.44-11.44S3443.75 2016.56 3437.45 2016.56zM4205.83 2830.61c-1.35.66-2.37 1.81-2.86 3.23-.49 1.42-.4 2.96.26 4.31l9.52 19.54-19.54 9.52c-1.35.66-2.37 1.81-2.86 3.23-.49 1.43-.4 2.95.26 4.31.66 1.35 1.81 2.37 3.23 2.86 1.42.49 2.95.4 4.31-.26l19.54-9.52 9.52 19.54c.66 1.35 1.81 2.37 3.23 2.86 1.42.49 2.95.4 4.31-.26 1.35-.66 2.37-1.81 2.86-3.23.49-1.43.4-2.95-.26-4.31l-9.52-19.54 19.54-9.52c2.21-1.08 3.4-3.41 3.13-5.72-.07-.62-.25-1.23-.53-1.82-1.36-2.8-4.74-3.96-7.54-2.6l-19.54 9.52-9.52-19.54C4212.01 2830.41 4208.63 2829.25 4205.83 2830.61zM3695.16 3312.83c-13.55 0-24.56-11.02-24.56-24.56 0-13.55 11.02-24.56 24.56-24.56s24.56 11.02 24.56 24.56C3719.73 3301.81 3708.71 3312.83 3695.16 3312.83zM3695.16 3276.83c-6.31 0-11.44 5.13-11.44 11.44 0 6.31 5.13 11.44 11.44 11.44s11.44-5.13 11.44-11.44C3706.6 3281.96 3701.47 3276.83 3695.16 3276.83zM1333.44 3119.63c-1.12 1.01-1.78 2.39-1.87 3.89-.08 1.51.43 2.95 1.43 4.07l14.51 16.18-16.18 14.51c-1.12 1.01-1.78 2.39-1.87 3.89-.08 1.51.43 2.95 1.43 4.07 1.01 1.12 2.39 1.78 3.89 1.87 1.5.08 2.95-.43 4.07-1.43l16.18-14.51 14.51 16.18c1.01 1.12 2.39 1.78 3.89 1.87 1.5.08 2.95-.43 4.07-1.43 1.12-1.01 1.78-2.39 1.87-3.89.08-1.51-.43-2.95-1.43-4.07l-14.51-16.18 16.18-14.51c1.83-1.64 2.33-4.21 1.44-6.36-.24-.57-.57-1.12-1.01-1.6-2.08-2.32-5.65-2.51-7.96-.43l-16.18 14.51-14.51-16.18C1339.32 3117.75 1335.75 3117.55 1333.44 3119.63zM1811.68 3519.47c-13.55 0-24.56-11.02-24.56-24.56s11.02-24.56 24.56-24.56c13.55 0 24.56 11.02 24.56 24.56S1825.22 3519.47 1811.68 3519.47zM1811.68 3483.47c-6.31 0-11.44 5.13-11.44 11.44s5.13 11.44 11.44 11.44 11.44-5.13 11.44-11.44S1817.98 3483.47 1811.68 3483.47zM1367 1630.23c-1.1 1.03-1.73 2.43-1.78 3.93-.05 1.51.49 2.94 1.52 4.04l14.87 15.85-15.85 14.87c-1.1 1.03-1.73 2.43-1.78 3.93-.05 1.51.49 2.94 1.52 4.04 1.03 1.1 2.43 1.73 3.93 1.78 1.51.05 2.94-.49 4.04-1.52l15.85-14.87 14.87 15.85c1.03 1.1 2.43 1.73 3.93 1.78 1.51.05 2.94-.49 4.04-1.52 1.1-1.03 1.73-2.43 1.78-3.93.05-1.51-.49-2.94-1.52-4.04l-14.87-15.85 15.85-14.87c1.79-1.68 2.24-4.26 1.3-6.39-.25-.57-.6-1.1-1.05-1.58-2.13-2.27-5.7-2.38-7.97-.25l-15.85 14.87-14.87-15.85C1372.84 1628.22 1369.27 1628.1 1367 1630.23zM1531.25 1801.72c-13.55 0-24.56-11.02-24.56-24.56s11.02-24.56 24.56-24.56c13.55 0 24.56 11.02 24.56 24.56S1544.79 1801.72 1531.25 1801.72zM1531.25 1765.72c-6.31 0-11.44 5.13-11.44 11.44 0 6.31 5.13 11.44 11.44 11.44 6.31 0 11.44-5.13 11.44-11.44C1542.68 1770.85 1537.55 1765.72 1531.25 1765.72zM4278.62 1836.48c-1.49.22-2.81 1-3.71 2.2-.9 1.21-1.28 2.69-1.06 4.18l3.1 21.51-21.51 3.1c-1.49.21-2.81 1-3.71 2.2-.9 1.21-1.28 2.69-1.07 4.18.22 1.49 1 2.81 2.2 3.71 1.21.9 2.69 1.28 4.18 1.07l21.51-3.1 3.1 21.51c.22 1.49 1 2.81 2.2 3.71 1.21.9 2.69 1.28 4.18 1.06 1.49-.21 2.81-1 3.71-2.2.9-1.21 1.28-2.69 1.06-4.18l-3.1-21.51 21.52-3.1c2.43-.35 4.27-2.21 4.73-4.49.12-.61.14-1.25.05-1.9-.44-3.08-3.31-5.22-6.39-4.78l-21.51 3.1-3.1-21.51C4284.57 1838.18 4281.7 1836.03 4278.62 1836.48zM2532.38 842.7c-1.5-.16-2.97.27-4.14 1.22-1.17.95-1.91 2.29-2.06 3.79l-2.3 21.61-21.61-2.3c-1.5-.16-2.97.27-4.14 1.22-1.17.95-1.91 2.29-2.07 3.79-.16 1.5.27 2.97 1.22 4.14.95 1.17 2.29 1.91 3.79 2.06l21.62 2.3-2.3 21.61c-.16 1.5.27 2.97 1.22 4.14.95 1.17 2.29 1.9 3.79 2.06 1.5.16 2.97-.27 4.14-1.22 1.17-.95 1.91-2.29 2.06-3.79l2.3-21.61 21.62 2.3c2.44.26 4.69-1.09 5.69-3.19.27-.56.45-1.17.51-1.82.33-3.09-1.92-5.88-5.01-6.2l-21.61-2.3 2.3-21.61C2537.72 845.82 2535.47 843.03 2532.38 842.7z"/><g><path fill="#f2f2f2" d="M3729.49,609c-56.35,0-102.04,45.67-102.04,102.03v942.62c0,73.95-59.96,133.92-133.92,133.92h-665.05V735.5
				c0-69.87,56.65-126.5,126.52-126.5H3729.49z"/><path fill="#dedede" d="M3493.54,1787.56h-337.98v-567.88c0-56.35,45.68-102.04,102.04-102.04c28.18,0,53.69,11.42,72.15,29.88
				c18.47,18.47,29.88,43.98,29.88,72.15v433.96C3359.63,1727.59,3419.58,1787.56,3493.54,1787.56z"/><path fill="#f2f2f2" d="M3257.59,1117.64c-56.35,0-102.04,45.68-102.04,102.04v1899.82c0,34.93-14.17,66.56-37.06,89.45
				c-22.89,22.9-54.52,37.06-89.45,37.06H2047.2c-69.86,0-126.51-56.63-126.51-126.51V1244.15c0-69.87,56.64-126.51,126.51-126.51
				H3257.59z"/><path fill="#dedede" d="M3029.05,3246H1760.87c-69.87,0-126.51-56.64-126.51-126.51v-77.57h1268.17v77.57
				C2902.54,3189.37,2959.17,3246,3029.05,3246z"/><g><path fill="#9c9c9c" d="M2238.09 2302.13v-49.27h-132.98c-16.78 0-29.36-3.8-37.75-11.39-8.39-7.59-12.58-17.92-12.58-30.99 0-3.35.62-6.75 1.85-10.2 1.23-3.44 3.09-7.06 5.56-10.86 2.47-3.8 5.03-7.46 7.68-10.99 2.65-3.53 5.92-7.86 9.8-12.98l140.4-187.81c9.18-12.36 16.73-21.32 22.65-26.89 5.91-5.56 13.02-8.34 21.32-8.34 26.84 0 40.26 15.36 40.26 46.09v205.03h11.39c13.6 0 24.5 1.85 32.72 5.56 8.21 3.71 12.32 11.83 12.32 24.37 0 10.24-3.36 17.71-10.07 22.38-6.71 4.68-16.78 7.02-30.2 7.02h-16.16v49.27c0 13.6-3 23.71-9.01 30.33-6.01 6.62-14.04 9.93-24.11 9.93-9.89 0-17.88-3.4-23.97-10.2C2241.14 2325.4 2238.09 2315.37 2238.09 2302.13zM2124.19 2193.52h113.91v-153.91L2124.19 2193.52zM2667.23 2145.3c0 28.97-1.77 53.87-5.3 74.7-3.53 20.84-10.07 39.74-19.6 56.69-12.01 20.84-27.55 36.91-46.62 48.21-19.07 11.3-40.27 16.95-63.58 16.95-26.85 0-50.91-7.59-72.19-22.78-21.28-15.19-37.31-36.2-48.08-63.05-5.48-14.66-9.5-30.86-12.05-48.61-2.56-17.75-3.84-36.95-3.84-57.62 0-26.66 1.41-50.68 4.24-72.05 2.82-21.37 7.24-39.74 13.24-55.1 10.42-25.43 25.56-44.81 45.43-58.15 19.87-13.33 43.58-20 71.13-20 18.19 0 34.7 2.96 49.54 8.87 14.83 5.92 27.86 14.57 39.07 25.96 11.21 11.39 20.7 25.48 28.48 42.25C2660.52 2050.74 2667.23 2091.97 2667.23 2145.3zM2594.65 2140.01c0-32.32-1.95-58.76-5.83-79.34-3.89-20.57-10.42-36.11-19.6-46.62-9.18-10.5-21.9-15.76-38.15-15.76-23.31 0-39.52 11.75-48.61 35.23-9.1 23.49-13.64 59.69-13.64 108.61 0 33.2 1.94 60.4 5.83 81.59 3.88 21.19 10.42 37.22 19.6 48.08 9.18 10.86 21.63 16.29 37.35 16.29 16.25 0 28.96-5.65 38.15-16.95 9.18-11.3 15.63-27.46 19.34-48.48C2592.8 2201.64 2594.65 2174.09 2594.65 2140.01zM2882.86 2302.13v-49.27h-132.98c-16.78 0-29.36-3.8-37.75-11.39-8.39-7.59-12.58-17.92-12.58-30.99 0-3.35.62-6.75 1.85-10.2 1.23-3.44 3.09-7.06 5.56-10.86 2.47-3.8 5.03-7.46 7.68-10.99 2.65-3.53 5.92-7.86 9.8-12.98l140.4-187.81c9.18-12.36 16.73-21.32 22.65-26.89 5.92-5.56 13.02-8.34 21.32-8.34 26.84 0 40.27 15.36 40.27 46.09v205.03h11.39c13.6 0 24.5 1.85 32.71 5.56 8.21 3.71 12.32 11.83 12.32 24.37 0 10.24-3.36 17.71-10.07 22.38-6.71 4.68-16.78 7.02-30.2 7.02h-16.16v49.27c0 13.6-3.01 23.71-9.01 30.33-6.01 6.62-14.04 9.93-24.11 9.93-9.89 0-17.88-3.4-23.97-10.2S2882.86 2315.37 2882.86 2302.13zM2768.95 2193.52h113.91v-153.91L2768.95 2193.52z"/></g><line x1="2828.49" x2="3257.59" y1="1121.33" y2="1121.33" fill="none" stroke="#dedede" stroke-miterlimit="10" stroke-width="5"/></g><g><path fill="#9c9c9c" d="M3726.83,3000.8L3726.83,3000.8c-18.79,18.8-49.26,18.8-68.05,0.01l-292.13-292.14l-37.12-37.12
				c27.03-17.84,50.21-41.02,68.04-68.05l329.26,329.26C3745.62,2951.56,3745.62,2982.01,3726.83,3000.8z"/><path fill="#5e5e5e" d="M3412.37,2618.3l76.12,76.13c-17.83,27.03-41.01,50.2-68.03,68.05h-0.01l-39-39.01l-37.12-37.12
				C3371.36,2668.51,3394.54,2645.33,3412.37,2618.3z"/><path fill="#b8b8b8" d="M3488.23,2459.76c-0.52-12.32-1.81-24.44-3.83-36.32c-11.44-67.53-46.21-127.13-95.73-170.2
					c-50.96-44.34-117.53-71.18-190.38-71.18c-160.27,0-290.2,129.93-290.2,290.21c0,11.1,0.63,22.04,1.84,32.82
					c3.8,33.77,13.39,65.77,27.77,95.01v0.01c20.64,42.02,51.16,78.31,88.52,105.86c6.07,4.48,12.33,8.73,18.75,12.74
					c44.49,27.73,97.04,43.76,153.32,43.76c62.76,0,120.88-19.92,168.35-53.8c0,0,0.01,0,0.01-0.01
					c26.28-18.74,49.29-41.75,68.04-68.03v-0.01h0.01c18.83-26.41,33.36-56.1,42.54-88.04c7.32-25.5,11.25-52.44,11.25-80.31
					C3488.49,2468.08,3488.4,2463.91,3488.23,2459.76z M3198.3,2710.84c-52.2,0-100.49-16.77-139.77-45.21
					c-38.13-27.6-67.77-66.21-84.28-111.17c-9.4-25.62-14.53-53.31-14.53-82.19c0-10.87,0.73-21.56,2.14-32.04
					c11.87-88.47,72.24-161.58,153.47-191.71c25.83-9.58,53.79-14.82,82.96-14.82c10.55,0,20.94,0.68,31.13,2.02
					c48.37,6.29,92.19,27.08,126.96,57.87c49.37,43.71,80.49,107.56,80.49,178.69c0,3.63-0.08,7.25-0.25,10.84
					c-0.77,17.51-3.45,34.53-7.81,50.87c-6.68,25.04-17.33,48.45-31.24,69.52c-17.84,27.02-41.02,50.21-68.04,68.05
					c-6.63,4.37-13.49,8.42-20.57,12.13c-15.11,7.92-31.17,14.28-47.98,18.83C3241.01,2707.95,3219.99,2710.84,3198.3,2710.84z"/><path fill="#fff" d="M3017.64,2498.51c-12.3,0-22.28-9.98-22.28-22.28c0-55.26,21.52-107.22,60.6-146.3
						c39.08-39.08,91.03-60.6,146.3-60.6c12.3,0,22.28,9.98,22.28,22.28c0,12.3-9.98,22.28-22.28,22.28
						c-43.36,0-84.13,16.89-114.79,47.55c-30.66,30.66-47.55,71.43-47.55,114.79C3039.92,2488.54,3029.94,2498.51,3017.64,2498.51z"/></g></svg>