<svg xmlns="http://www.w3.org/2000/svg" viewBox="0 0 1400.89 497.64"><g data-name="Layer 2"><g data-name="outline II"><g data-name="contact us"><path fill="none" stroke="#111" stroke-linecap="round" stroke-linejoin="round" stroke-width="6" d="M404.51 137.58v-15.29A33 33 0 00431 95.63a4.94 4.94 0 00-9.74-1.63c-1.94 10.51-11.35 17.52-22.67 17.52s-20.74-7-22.68-17.52a4.94 4.94 0 00-9.74 1.66 33 33 0 0026.49 26.66v15.29M492.34 137.58v-15.29a33 33 0 0026.49-26.66 4.94 4.94 0 00-9.74-1.63c-1.94 10.51-11.35 17.52-22.67 17.52s-20.73-7-22.67-17.52a4.94 4.94 0 00-9.75 1.63 33 33 0 0026.49 26.66v15.29M311.36 276.17a18.5 18.5 0 01-13.83-6.17l-2.77-3.12a33.3 33.3 0 01-6.1-34.18l32.51-83.3a18.48 18.48 0 0117.22-11.77h183a18.47 18.47 0 0117.4 12.25l30.07 83.82a36.91 36.91 0 01-.91 27.2l-1.83 4.21a18.48 18.48 0 01-17 11.11"/><path fill="none" stroke="#111" stroke-linecap="round" stroke-linejoin="round" stroke-width="6" d="m466.72 137.58-32.94 105.93a14.81 14.81 0 0 0 3.22 14.36l16.69 18.3"/><ellipse cx="373.34" cy="196.98" fill="none" stroke="#111" stroke-linecap="round" stroke-linejoin="round" stroke-width="6" rx="46.06" ry="39.67" transform="rotate(-35.07 373.35 196.982)"/><ellipse cx="373.34" cy="196.98" fill="none" stroke="#111" stroke-linecap="round" stroke-linejoin="round" stroke-width="6" rx="27.39" ry="23.59" transform="rotate(-35.07 373.35 196.982)"/><path fill="#111" d="m387.38 200.75-29.07-.08a3 3 0 0 1-3.11-3.5 4.26 4.26 0 0 1 4.15-3.48l29.07.08a3 3 0 0 1 3.11 3.5 4.27 4.27 0 0 1-4.15 3.48Z"/><ellipse cx="379.67" cy="163.03" fill="#111" rx="4.1" ry="3.53" transform="rotate(-35.07 379.692 163.03)"/><ellipse cx="396" cy="167.44" fill="#111" rx="4.1" ry="3.53" transform="rotate(-35.07 396.016 167.439)"/><ellipse cx="360.62" cy="167.34" fill="#111" rx="4.1" ry="3.53" transform="rotate(-35.07 360.629 167.344)"/><ellipse cx="346.09" cy="179.77" fill="#111" rx="4.1" ry="3.53" transform="rotate(-35.07 346.102 179.775)"/><ellipse cx="406.28" cy="180.01" fill="#111" rx="4.1" ry="3.53" transform="rotate(-35.07 406.296 180.016)"/><ellipse cx="338.74" cy="196.89" fill="#111" rx="4.1" ry="3.53" transform="rotate(-35.07 338.76 196.896)"/><ellipse cx="407.61" cy="197.08" fill="#111" rx="4.1" ry="3.53" transform="rotate(-35.07 407.624 197.074)"/><ellipse cx="367.58" cy="230.94" fill="#111" rx="4.1" ry="3.53" transform="rotate(-35.07 367.595 230.947)"/><ellipse cx="351.25" cy="226.53" fill="#111" rx="4.1" ry="3.53" transform="rotate(-35.07 351.255 226.532)"/><ellipse cx="340.97" cy="213.96" fill="#111" rx="4.1" ry="3.53" transform="rotate(-35 343.762 215.644)"/><path fill="#111" d="m419.78 219-19.24-6.62a2.7 2.7 0 0 0-3.33 3.67l8.44 18.8a2.7 2.7 0 0 0 4.49.68l10.78-12.19a2.69 2.69 0 0 0-1.14-4.34Z"/><g><path fill="none" stroke="#111" stroke-linecap="round" stroke-linejoin="round" stroke-width="6" d="M232.27 492.27v-215.1h384.31v113.29" data-name="shape"/><path fill="none" stroke="#111" stroke-linecap="round" stroke-linejoin="round" stroke-width="6" d="M232.27 295.08h384.31"/><path fill="none" stroke="#111" stroke-linecap="round" stroke-linejoin="round" stroke-width="6" d="M461.26 489.57V279.1" data-name="line"/><path fill="none" stroke="#111" stroke-linecap="round" stroke-linejoin="round" stroke-width="6" d="M253.63 333.15h180.22v44.24H253.63z"/><circle cx="343.74" cy="355.27" r="11.9" fill="none" stroke="#111" stroke-linecap="round" stroke-linejoin="round" stroke-width="6"/><g data-name="drawer II"><path fill="none" stroke="#111" stroke-linecap="round" stroke-linejoin="round" stroke-width="6" d="M253.63 407.46h180.22v44.24H253.63z"/><circle cx="343.74" cy="429.59" r="11.9" fill="none" stroke="#111" stroke-linecap="round" stroke-linejoin="round" stroke-width="6"/></g></g><g><path fill="none" stroke="#111" stroke-linecap="round" stroke-linejoin="round" stroke-width="6" d="M1207.31 494.64s31-46.44-23.68-49.91c-45-2.86-113.52-7.48-143.1-17.26a189.58 189.58 0 0 0-2.8-47.85"/><path fill="none" stroke="#111" stroke-linecap="round" stroke-linejoin="round" stroke-width="6" d="M948.51 218.45c-24.35-22.85-41.17-24.87-41.17-24.87-9.25-21-24.67-39.1-36.55-51.08 8.23-23.64 5.49-48.78-21-67.21 4-23.47-29.34-78.48-46.8-71.72-5.7 2.21-19.36 23.57-30.79 47.92a410 410 0 0 0-49.1-2c-15.27-14-60.46-52.8-79.26-39.66-5.65 3.94-4.6 41.3-2.46 70.6-22.66 26.33-41.57 65.53-.94 105.44 1.39 1.37 2.81 2.68 4.24 4a74.23 74.23 0 0 1-.63 11.07c-2.46 17.49-15 50.32 11.6 118.22 9.69 24.84 22.25 54.5 28.35 82.1 4 18.09.3 39.17-6.43 53.58" data-name="body"/><path fill="none" stroke="#111" stroke-linecap="round" stroke-linejoin="round" stroke-width="6" d="M643.8 9.87s50.84 27 44.65 59.36M806.25 3s24.58 39.67 14.34 64.77" data-name="ear line"/><ellipse cx="740.14" cy="107.44" fill="#111" data-name="eye II" rx="11.61" ry="7.38" transform="rotate(-81.15 740.146 107.435)"/><ellipse cx="683.34" cy="107.74" fill="#111" rx="11.61" ry="7.38" transform="rotate(-81.15 683.345 107.736)"/><path fill="none" stroke="#111" stroke-linecap="round" stroke-linejoin="round" stroke-width="6" d="M728.21 150.17c-16.85 10.2-20.35-5.76-21.4-14.37-1.12 8.1-6.25 25.87-18.36 14.37"/><path fill="#111" d="m694.4 128.21 9.83 8.55a4.13 4.13 0 0 0 5.26-.16l9.25-8.31c2.22-2 .8-5.16-2.33-5.2l-19.09-.25c-3.32-.04-5.18 3.4-2.92 5.37Z"/><path fill="none" stroke="#111" stroke-linecap="round" stroke-linejoin="round" stroke-width="6" d="M661.12 131.45s-49.39-46.34-107.44-11.2M661.45 140.59s-57.35-36-107.6 9.58"/><g data-name="whiskers II"><path fill="none" stroke="#111" stroke-linecap="round" stroke-linejoin="round" stroke-width="6" d="M762 127.27S837.17 79.81 895.22 115M761.61 136.41s83.19-37.14 133.44 8.46"/></g><path fill="none" stroke="#111" stroke-linecap="round" stroke-linejoin="round" stroke-width="6" d="M859.71 172.84c-14.23 23-85 80.77-200.49 26a38.5 38.5 0 0 1-4.21-2.34l-10.37-6.6"/></g><g><path fill="none" stroke="#6d6d6d" stroke-linecap="round" stroke-linejoin="round" stroke-width="6" d="M499.6 233.24c2.71 19.67 3.43 41.69-7.83 42.52-18.29 1.33-33.51-24.18-14.34-27.68s51.85 9.49 46.9 36.57-25.9 29.09-35.32 18.19 17.56-19.17 31.32-11.8 19.43 16.9 11.32 32.8c-10.48 20.53-17.82 18.1-22 10.9s-.93-13.84 24.55-10.6 38.31 42.71 20.06 53.27-35.26-11.23-23.84-18.35 50.85 5.19 45.32 33.57-26.5 15.88-26.73 8.73 23.3-14.79 40.35 2.2" data-name="telephone string"/><g data-name="earphone"><path fill="#6d6d6d" d="M756.68 475c-1.33-10 2.13-26.14 6.32-40.84-4.87 0-9.6-.14-14.2-.27-6.26 20.91-11.72 41.2-11.72 41.2-.05.44-.12.86-.21 1.28l-.09.39c-.06.29-.13.57-.21.85s-.09.28-.13.42v.11c7.09.27 14.19.39 21.22.39a13.83 13.83 0 0 1-.98-3.53ZM666.42 426.3c-3.88-13.5-19.79-27.87-17.28-25.87a54.2 54.2 0 0 1-61 82.18A51.21 51.21 0 0 0 661 467c5 1.61 10.28 3 15.77 4.24-.11-10.73 2.62-25.12 5.73-37.91.36-1.5.67-3 1-4.51-6.74-.82-12.5-1.74-17.08-2.52Z"/><path fill="#6d6d6d" d="m630.13 418.6-13.31-.74c0 17.4-4.08 28.14-6.66 33.15l13 4.88c17.55-16.3 9.65-32.82 6.97-37.29Z"/><path fill="#6d6d6d" d="m631.91 391.38-14.71-2.15a51.21 51.21 0 0 0-42.64 79.57 48.19 48.19 0 1 0 57.35-77.42Zm-6.16 70.23a3 3 0 0 1-2 .73 3.19 3.19 0 0 1-1-.19l-18-6.78a3 3 0 0 1-1.33-4.63c.07-.1 8.17-11.26 7.4-36a3 3 0 0 1 .9-2.24 3.09 3.09 0 0 1 2.27-.85l18 1a3 3 0 0 1 2.25 1.22c.18.3 17.76 25.02-8.49 47.74ZM588.15 482.61h-.01.01zM576 470.8ZM574.55 468.8zM884.42 479.07a48.16 48.16 0 0 0 28.8-86.8 56.61 56.61 0 0 0-18-3A51.22 51.22 0 0 0 845 430.29q-6.75.7-13.33 1.25c-5.93 15.55-11.79 33-14.12 40.14-.47 1.4-.93 2.8-1.27 4.24l-.06.22c16.62-1.29 30.32-2.82 38.87-3.87 8.4 6.61 18.38 6.8 29.33 6.8Zm5.11-58.13a14 14 0 1 1-14 14.05 14.06 14.06 0 0 1 14-14.05Z"/><circle cx="889.53" cy="434.99" r="8.04" fill="#6d6d6d"/><path fill="#6d6d6d" d="M929.27 400.45a54.19 54.19 0 0 1-61 82.16 2.84 2.84 0 0 1-.95-.14 68.94 68.94 0 0 0 33.24 9.18 51.2 51.2 0 0 0 51.21-51.21c.01-16.18-9.27-30.6-22.5-39.99Z"/></g></g><g data-name="cat legs"><g data-name="cat leg"><path fill="none" stroke="#111" stroke-linecap="round" stroke-linejoin="round" stroke-width="6" d="M655.61 319.15c.18 1 11.31 35.47 22.12 60.31a84.81 84.81 0 0 1 4.76 53.87c-3.85 15.83-7.12 34.11-5.13 44.87 4 21.89 56.76 21.12 59.72-3.11 0 0 17.52-65.13 25.75-82.22"/><path fill="none" stroke="#111" stroke-linecap="round" stroke-linejoin="round" stroke-width="6" d="M698.89 453.18s-7.74 28.26-5.45 38.91M713.32 454.84s-8.3 25.28-6 35.92"/><path fill="none" stroke="#111" stroke-linecap="round" stroke-linejoin="round" stroke-width="6" d="M722.73 491c7.64-3 13.43-8.3 14.35-15.87 0 0 17.52-65.13 25.75-82.22" data-name="line"/></g><g data-name="cat leg II"><path fill="none" stroke="#111" stroke-linecap="round" stroke-linejoin="round" stroke-width="6" d="M883.4 312c-2.15 42.25-32.66 79.83-41.74 96.48-7.69 14.08-20.38 51.91-24.11 63.24-.47 1.4-.93 2.8-1.27 4.24-5.44 23-56.72 20.85-59.6-.92-1.44-10.84 2.75-28.93 7.4-44.55a84.09 84.09 0 0 0 3.39-27.7 50.21 50.21 0 0 0-16.41-34.62c-7.34-6.74-15.91-17.45-17.35-31.53"/><path fill="none" stroke="#111" stroke-linecap="round" stroke-linejoin="round" stroke-width="6" d="M781.89 453.18s-7.74 28.26-5.46 38.91M796.31 454.67s-8.3 25.28-6 35.92"/></g></g><g><path fill="none" stroke="#111" stroke-linecap="round" stroke-linejoin="round" stroke-width="6" d="M1180.07 272.77c0-59-55.34-106.85-123.61-106.85-64.44 0-117.35 42.62-123.09 97l1.63 116.7 134.53-.6c62.12-5.64 110.54-51.02 110.54-106.25Z" data-name="shape"/><path fill="#111" d="M984.64 302.24a3.76 3.76 0 0 1-3.79 3.79 3.76 3.76 0 0 1-3.75-3.79v-50.17a3.63 3.63 0 0 1 1.1-2.69 3.74 3.74 0 0 1 5.3 0 3.74 3.74 0 0 1 1.14 2.69v17.32a18.73 18.73 0 0 1 18.5-2.24 19.65 19.65 0 0 1 6 4 19.05 19.05 0 0 1 4.12 6 18.07 18.07 0 0 1 1.51 7.35v17.72a3.77 3.77 0 0 1-1.13 2.69 3.76 3.76 0 0 1-6.41-2.69v-17.7a10.78 10.78 0 0 0-.9-4.37 11.82 11.82 0 0 0-2.44-3.59 11.64 11.64 0 0 0-3.59-2.44 10.78 10.78 0 0 0-4.37-.9 10.93 10.93 0 0 0-4.39.88 11.65 11.65 0 0 0-3.59 2.44 11.31 11.31 0 0 0-2.43 3.61 11 11 0 0 0-.89 4.37ZM1051.2 294.66a3.64 3.64 0 0 1 3.76 3.75 3.75 3.75 0 0 1-1.08 2.71 20.22 20.22 0 1 1-13.22-35.52 20.51 20.51 0 0 1 18.74 12.4 20.3 20.3 0 0 1 1.48 7.78 3.6 3.6 0 0 1-1.1 2.69 3.73 3.73 0 0 1-2.69 1.06h-28.59a12.57 12.57 0 0 0 1.8 3.63 12.87 12.87 0 0 0 6.34 4.64 12.63 12.63 0 0 0 4 .65 12.48 12.48 0 0 0 4.37-.73 11.88 11.88 0 0 0 3.68-2.16 4 4 0 0 1 2.51-.9Zm1.63-12.6a12.37 12.37 0 0 0-1.82-3.63 13.18 13.18 0 0 0-2.82-2.81 12.9 12.9 0 0 0-3.54-1.82 12.22 12.22 0 0 0-4-.65 12.37 12.37 0 0 0-4 .65 13.28 13.28 0 0 0-3.58 1.82 12.49 12.49 0 0 0-2.81 2.81 11.56 11.56 0 0 0-1.77 3.63ZM1066.29 302.28v-50.21a3.72 3.72 0 0 1 1.07-2.69 3.83 3.83 0 0 1 5.37 0 3.72 3.72 0 0 1 1.07 2.69v46.42h1.73a3.61 3.61 0 0 1 2.66 1.1 3.67 3.67 0 0 1 1.1 2.69 3.76 3.76 0 0 1-3.76 3.75H1070a3.6 3.6 0 0 1-2.64-1.1 3.65 3.65 0 0 1-1.07-2.65ZM1083.62 302.28v-50.21a3.71 3.71 0 0 1 1.06-2.69 3.84 3.84 0 0 1 5.38 0 3.72 3.72 0 0 1 1.07 2.69v46.42h1.73a3.59 3.59 0 0 1 2.65 1.1 3.63 3.63 0 0 1 1.1 2.69 3.59 3.59 0 0 1-1.1 2.65 3.62 3.62 0 0 1-2.65 1.1h-5.52a3.57 3.57 0 0 1-2.64-1.1 3.65 3.65 0 0 1-1.08-2.65ZM1141.73 285.82a19.33 19.33 0 0 1-5.91 14.29 20.22 20.22 0 1 1 0-28.59 20 20 0 0 1 4.42 6.54 20.74 20.74 0 0 1 1.49 7.76Zm-20.21-12.67a12.18 12.18 0 0 0-5 1 12.76 12.76 0 0 0-4 2.72 13 13 0 0 0-2.69 4 12.67 12.67 0 0 0 0 9.82 12.71 12.71 0 0 0 6.7 6.75 12.71 12.71 0 0 0 9.93 0 12.94 12.94 0 0 0 6.73-6.77 12.57 12.57 0 0 0 0-9.78 13.11 13.11 0 0 0-2.71-4 12.8 12.8 0 0 0-4-2.74 12.11 12.11 0 0 0-4.96-1Z"/></g><path fill="#fff" stroke="#111" stroke-linecap="round" stroke-linejoin="round" stroke-width="6" d="M3 493.72h1394.89" data-name="line"/></g></g></g></svg>